<svg width="175" height="175" viewBox="0 0 175 175" fill="none" xmlns="http://www.w3.org/2000/svg">
<circle cx="87.5" cy="87.5" r="87.5" fill="#2B3C5B"/>
<path d="M31.4091 93V81.3636H35.4773C36.2879 81.3636 36.9564 81.5038 37.483 81.7841C38.0095 82.0606 38.4015 82.4337 38.6591 82.9034C38.9167 83.3693 39.0455 83.8864 39.0455 84.4545C39.0455 84.9545 38.9564 85.3674 38.7784 85.6932C38.6042 86.0189 38.3731 86.2765 38.0852 86.4659C37.8011 86.6553 37.4924 86.7955 37.1591 86.8864V87C37.5152 87.0227 37.8731 87.1477 38.233 87.375C38.5928 87.6023 38.8939 87.928 39.1364 88.3523C39.3788 88.7765 39.5 89.2955 39.5 89.9091C39.5 90.4924 39.3674 91.017 39.1023 91.483C38.8371 91.9489 38.4186 92.3182 37.8466 92.5909C37.2746 92.8636 36.5303 93 35.6136 93H31.4091ZM32.8182 91.75H35.6136C36.5341 91.75 37.1875 91.572 37.5739 91.2159C37.964 90.8561 38.1591 90.4205 38.1591 89.9091C38.1591 89.5152 38.0587 89.1515 37.858 88.8182C37.6572 88.4811 37.3712 88.2121 37 88.0114C36.6288 87.8068 36.1894 87.7045 35.6818 87.7045H32.8182V91.75ZM32.8182 86.4773H35.4318C35.8561 86.4773 36.2386 86.3939 36.5795 86.2273C36.9242 86.0606 37.197 85.8258 37.3977 85.5227C37.6023 85.2197 37.7045 84.8636 37.7045 84.4545C37.7045 83.9432 37.5265 83.5095 37.1705 83.1534C36.8144 82.7936 36.25 82.6136 35.4773 82.6136H32.8182V86.4773ZM45.2926 93.1818C44.4517 93.1818 43.7263 92.9962 43.1165 92.625C42.5104 92.25 42.0426 91.7273 41.7131 91.0568C41.3873 90.3826 41.2244 89.5985 41.2244 88.7045C41.2244 87.8106 41.3873 87.0227 41.7131 86.3409C42.0426 85.6553 42.5009 85.1212 43.0881 84.7386C43.679 84.3523 44.3684 84.1591 45.1562 84.1591C45.6108 84.1591 46.0597 84.2348 46.5028 84.3864C46.946 84.5379 47.3494 84.7841 47.7131 85.125C48.0767 85.4621 48.3665 85.9091 48.5824 86.4659C48.7983 87.0227 48.9062 87.7083 48.9062 88.5227V89.0909H42.179V87.9318H47.5426C47.5426 87.4394 47.4441 87 47.2472 86.6136C47.054 86.2273 46.7775 85.9223 46.4176 85.6989C46.0616 85.4754 45.6411 85.3636 45.1562 85.3636C44.6222 85.3636 44.16 85.4962 43.7699 85.7614C43.3835 86.0227 43.0862 86.3636 42.8778 86.7841C42.6695 87.2045 42.5653 87.6553 42.5653 88.1364V88.9091C42.5653 89.5682 42.679 90.1269 42.9062 90.5852C43.1373 91.0398 43.4574 91.3864 43.8665 91.625C44.2756 91.8598 44.7509 91.9773 45.2926 91.9773C45.6449 91.9773 45.9631 91.928 46.2472 91.8295C46.535 91.7273 46.7831 91.5758 46.9915 91.375C47.1998 91.1705 47.3608 90.9167 47.4744 90.6136L48.7699 90.9773C48.6335 91.4167 48.4044 91.803 48.0824 92.1364C47.7604 92.4659 47.3627 92.7235 46.8892 92.9091C46.4157 93.0909 45.8835 93.1818 45.2926 93.1818ZM51.1278 93V81.3636H52.4688V85.6591H52.5824C52.6809 85.5076 52.8172 85.3144 52.9915 85.0795C53.1695 84.8409 53.4233 84.6288 53.7528 84.4432C54.0862 84.2538 54.5369 84.1591 55.1051 84.1591C55.84 84.1591 56.4877 84.3428 57.0483 84.7102C57.6089 85.0777 58.0464 85.5985 58.3608 86.2727C58.6752 86.947 58.8324 87.7424 58.8324 88.6591C58.8324 89.5833 58.6752 90.3845 58.3608 91.0625C58.0464 91.7367 57.6108 92.2595 57.054 92.6307C56.4972 92.9981 55.8551 93.1818 55.1278 93.1818C54.5672 93.1818 54.1184 93.089 53.7812 92.9034C53.4441 92.714 53.1847 92.5 53.0028 92.2614C52.821 92.0189 52.6809 91.8182 52.5824 91.6591H52.4233V93H51.1278ZM52.446 88.6364C52.446 89.2955 52.5426 89.8769 52.7358 90.3807C52.929 90.8807 53.2112 91.2727 53.5824 91.5568C53.9536 91.8371 54.4081 91.9773 54.946 91.9773C55.5066 91.9773 55.9744 91.8295 56.3494 91.5341C56.7282 91.2348 57.0123 90.8333 57.2017 90.3295C57.3949 89.822 57.4915 89.2576 57.4915 88.6364C57.4915 88.0227 57.3968 87.4697 57.2074 86.9773C57.0218 86.4811 56.7396 86.089 56.3608 85.8011C55.9858 85.5095 55.5142 85.3636 54.946 85.3636C54.4006 85.3636 53.9422 85.5019 53.571 85.7784C53.1998 86.0511 52.9195 86.4337 52.7301 86.9261C52.5407 87.4148 52.446 87.9848 52.446 88.6364ZM63.4517 93.2045C62.8987 93.2045 62.3968 93.1004 61.946 92.892C61.4953 92.6799 61.1373 92.375 60.8722 91.9773C60.607 91.5758 60.4744 91.0909 60.4744 90.5227C60.4744 90.0227 60.5729 89.6174 60.7699 89.3068C60.9669 88.9924 61.2301 88.7462 61.5597 88.5682C61.8892 88.3902 62.2528 88.2576 62.6506 88.1705C63.0521 88.0795 63.4555 88.0076 63.8608 87.9545C64.3911 87.8864 64.821 87.8352 65.1506 87.8011C65.4839 87.7633 65.7263 87.7008 65.8778 87.6136C66.0331 87.5265 66.1108 87.375 66.1108 87.1591V87.1136C66.1108 86.553 65.9574 86.1174 65.6506 85.8068C65.3475 85.4962 64.8873 85.3409 64.2699 85.3409C63.6297 85.3409 63.1278 85.4811 62.7642 85.7614C62.4006 86.0417 62.1449 86.3409 61.9972 86.6591L60.7244 86.2045C60.9517 85.6742 61.2547 85.2614 61.6335 84.9659C62.0161 84.6667 62.4328 84.4583 62.8835 84.3409C63.3381 84.2197 63.785 84.1591 64.2244 84.1591C64.5047 84.1591 64.8267 84.1932 65.1903 84.2614C65.5578 84.3258 65.9119 84.4602 66.2528 84.6648C66.5975 84.8693 66.8835 85.178 67.1108 85.5909C67.3381 86.0038 67.4517 86.5568 67.4517 87.25V93H66.1108V91.8182H66.0426C65.9517 92.0076 65.8002 92.2102 65.5881 92.4261C65.3759 92.642 65.0938 92.8258 64.7415 92.9773C64.3892 93.1288 63.9593 93.2045 63.4517 93.2045ZM63.6562 92C64.1866 92 64.6335 91.8958 64.9972 91.6875C65.3646 91.4792 65.6411 91.2102 65.8267 90.8807C66.0161 90.5511 66.1108 90.2045 66.1108 89.8409V88.6136C66.054 88.6818 65.929 88.7443 65.7358 88.8011C65.5464 88.8542 65.3267 88.9015 65.0767 88.9432C64.8305 88.9811 64.59 89.0152 64.3551 89.0455C64.1241 89.072 63.9366 89.0947 63.7926 89.1136C63.4441 89.1591 63.1184 89.233 62.8153 89.3352C62.5161 89.4337 62.2737 89.5833 62.0881 89.7841C61.9063 89.9811 61.8153 90.25 61.8153 90.5909C61.8153 91.0568 61.9877 91.4091 62.3324 91.6477C62.6809 91.8826 63.1222 92 63.6562 92ZM76.081 86.2273L74.8764 86.5682C74.8007 86.3674 74.6889 86.1723 74.5412 85.983C74.3973 85.7898 74.2003 85.6307 73.9503 85.5057C73.7003 85.3807 73.3802 85.3182 72.9901 85.3182C72.456 85.3182 72.0109 85.4413 71.6548 85.6875C71.3026 85.9299 71.1264 86.2386 71.1264 86.6136C71.1264 86.947 71.2476 87.2102 71.4901 87.4034C71.7325 87.5966 72.1113 87.7576 72.6264 87.8864L73.9219 88.2045C74.7022 88.3939 75.2836 88.6837 75.6662 89.0739C76.0488 89.4602 76.2401 89.9583 76.2401 90.5682C76.2401 91.0682 76.0961 91.5152 75.8082 91.9091C75.5241 92.303 75.1264 92.6136 74.6151 92.8409C74.1037 93.0682 73.509 93.1818 72.831 93.1818C71.9408 93.1818 71.2041 92.9886 70.6207 92.6023C70.0374 92.2159 69.6681 91.6515 69.5128 90.9091L70.7855 90.5909C70.9067 91.0606 71.1359 91.4129 71.473 91.6477C71.8139 91.8826 72.259 92 72.8082 92C73.4332 92 73.9295 91.8674 74.2969 91.6023C74.6681 91.3333 74.8537 91.0114 74.8537 90.6364C74.8537 90.3333 74.7476 90.0795 74.5355 89.875C74.3234 89.6667 73.9976 89.5114 73.5582 89.4091L72.1037 89.0682C71.3045 88.8788 70.7173 88.5852 70.3423 88.1875C69.9711 87.786 69.7855 87.2841 69.7855 86.6818C69.7855 86.1894 69.9238 85.7538 70.2003 85.375C70.4806 84.9962 70.8613 84.6989 71.3423 84.483C71.8272 84.267 72.3764 84.1591 72.9901 84.1591C73.8537 84.1591 74.5317 84.3485 75.0241 84.7273C75.5204 85.1061 75.8726 85.6061 76.081 86.2273ZM86.4176 93.1818C85.5767 93.1818 84.8513 92.9962 84.2415 92.625C83.6354 92.25 83.1676 91.7273 82.8381 91.0568C82.5123 90.3826 82.3494 89.5985 82.3494 88.7045C82.3494 87.8106 82.5123 87.0227 82.8381 86.3409C83.1676 85.6553 83.6259 85.1212 84.2131 84.7386C84.804 84.3523 85.4934 84.1591 86.2812 84.1591C86.7358 84.1591 87.1847 84.2348 87.6278 84.3864C88.071 84.5379 88.4744 84.7841 88.8381 85.125C89.2017 85.4621 89.4915 85.9091 89.7074 86.4659C89.9233 87.0227 90.0312 87.7083 90.0312 88.5227V89.0909H83.304V87.9318H88.6676C88.6676 87.4394 88.5691 87 88.3722 86.6136C88.179 86.2273 87.9025 85.9223 87.5426 85.6989C87.1866 85.4754 86.7661 85.3636 86.2812 85.3636C85.7472 85.3636 85.285 85.4962 84.8949 85.7614C84.5085 86.0227 84.2112 86.3636 84.0028 86.7841C83.7945 87.2045 83.6903 87.6553 83.6903 88.1364V88.9091C83.6903 89.5682 83.804 90.1269 84.0312 90.5852C84.2623 91.0398 84.5824 91.3864 84.9915 91.625C85.4006 91.8598 85.8759 91.9773 86.4176 91.9773C86.7699 91.9773 87.0881 91.928 87.3722 91.8295C87.66 91.7273 87.9081 91.5758 88.1165 91.375C88.3248 91.1705 88.4858 90.9167 88.5994 90.6136L89.8949 90.9773C89.7585 91.4167 89.5294 91.803 89.2074 92.1364C88.8854 92.4659 88.4877 92.7235 88.0142 92.9091C87.5407 93.0909 87.0085 93.1818 86.4176 93.1818ZM92.2528 93V81.3636H93.5938V85.6591H93.7074C93.8059 85.5076 93.9422 85.3144 94.1165 85.0795C94.2945 84.8409 94.5483 84.6288 94.8778 84.4432C95.2112 84.2538 95.6619 84.1591 96.2301 84.1591C96.965 84.1591 97.6127 84.3428 98.1733 84.7102C98.7339 85.0777 99.1714 85.5985 99.4858 86.2727C99.8002 86.947 99.9574 87.7424 99.9574 88.6591C99.9574 89.5833 99.8002 90.3845 99.4858 91.0625C99.1714 91.7367 98.7358 92.2595 98.179 92.6307C97.6222 92.9981 96.9801 93.1818 96.2528 93.1818C95.6922 93.1818 95.2434 93.089 94.9062 92.9034C94.5691 92.714 94.3097 92.5 94.1278 92.2614C93.946 92.0189 93.8059 91.8182 93.7074 91.6591H93.5483V93H92.2528ZM93.571 88.6364C93.571 89.2955 93.6676 89.8769 93.8608 90.3807C94.054 90.8807 94.3362 91.2727 94.7074 91.5568C95.0786 91.8371 95.5331 91.9773 96.071 91.9773C96.6316 91.9773 97.0994 91.8295 97.4744 91.5341C97.8532 91.2348 98.1373 90.8333 98.3267 90.3295C98.5199 89.822 98.6165 89.2576 98.6165 88.6364C98.6165 88.0227 98.5218 87.4697 98.3324 86.9773C98.1468 86.4811 97.8646 86.089 97.4858 85.8011C97.1108 85.5095 96.6392 85.3636 96.071 85.3636C95.5256 85.3636 95.0672 85.5019 94.696 85.7784C94.3248 86.0511 94.0445 86.4337 93.8551 86.9261C93.6657 87.4148 93.571 87.9848 93.571 88.6364ZM104.577 93.2045C104.024 93.2045 103.522 93.1004 103.071 92.892C102.62 92.6799 102.262 92.375 101.997 91.9773C101.732 91.5758 101.599 91.0909 101.599 90.5227C101.599 90.0227 101.698 89.6174 101.895 89.3068C102.092 88.9924 102.355 88.7462 102.685 88.5682C103.014 88.3902 103.378 88.2576 103.776 88.1705C104.177 88.0795 104.58 88.0076 104.986 87.9545C105.516 87.8864 105.946 87.8352 106.276 87.8011C106.609 87.7633 106.851 87.7008 107.003 87.6136C107.158 87.5265 107.236 87.375 107.236 87.1591V87.1136C107.236 86.553 107.082 86.1174 106.776 85.8068C106.473 85.4962 106.012 85.3409 105.395 85.3409C104.755 85.3409 104.253 85.4811 103.889 85.7614C103.526 86.0417 103.27 86.3409 103.122 86.6591L101.849 86.2045C102.077 85.6742 102.38 85.2614 102.759 84.9659C103.141 84.6667 103.558 84.4583 104.009 84.3409C104.463 84.2197 104.91 84.1591 105.349 84.1591C105.63 84.1591 105.952 84.1932 106.315 84.2614C106.683 84.3258 107.037 84.4602 107.378 84.6648C107.723 84.8693 108.009 85.178 108.236 85.5909C108.463 86.0038 108.577 86.5568 108.577 87.25V93H107.236V91.8182H107.168C107.077 92.0076 106.925 92.2102 106.713 92.4261C106.501 92.642 106.219 92.8258 105.866 92.9773C105.514 93.1288 105.084 93.2045 104.577 93.2045ZM104.781 92C105.312 92 105.759 91.8958 106.122 91.6875C106.49 91.4792 106.766 91.2102 106.952 90.8807C107.141 90.5511 107.236 90.2045 107.236 89.8409V88.6136C107.179 88.6818 107.054 88.7443 106.861 88.8011C106.671 88.8542 106.452 88.9015 106.202 88.9432C105.955 88.9811 105.715 89.0152 105.48 89.0455C105.249 89.072 105.062 89.0947 104.918 89.1136C104.569 89.1591 104.243 89.233 103.94 89.3352C103.641 89.4337 103.399 89.5833 103.213 89.7841C103.031 89.9811 102.94 90.25 102.94 90.5909C102.94 91.0568 103.113 91.4091 103.457 91.6477C103.806 91.8826 104.247 92 104.781 92ZM117.206 86.2273L116.001 86.5682C115.926 86.3674 115.814 86.1723 115.666 85.983C115.522 85.7898 115.325 85.6307 115.075 85.5057C114.825 85.3807 114.505 85.3182 114.115 85.3182C113.581 85.3182 113.136 85.4413 112.78 85.6875C112.428 85.9299 112.251 86.2386 112.251 86.6136C112.251 86.947 112.373 87.2102 112.615 87.4034C112.857 87.5966 113.236 87.7576 113.751 87.8864L115.047 88.2045C115.827 88.3939 116.409 88.6837 116.791 89.0739C117.174 89.4602 117.365 89.9583 117.365 90.5682C117.365 91.0682 117.221 91.5152 116.933 91.9091C116.649 92.303 116.251 92.6136 115.74 92.8409C115.229 93.0682 114.634 93.1818 113.956 93.1818C113.066 93.1818 112.329 92.9886 111.746 92.6023C111.162 92.2159 110.793 91.6515 110.638 90.9091L111.911 90.5909C112.032 91.0606 112.261 91.4129 112.598 91.6477C112.939 91.8826 113.384 92 113.933 92C114.558 92 115.054 91.8674 115.422 91.6023C115.793 91.3333 115.979 91.0114 115.979 90.6364C115.979 90.3333 115.873 90.0795 115.661 89.875C115.448 89.6667 115.123 89.5114 114.683 89.4091L113.229 89.0682C112.429 88.8788 111.842 88.5852 111.467 88.1875C111.096 87.786 110.911 87.2841 110.911 86.6818C110.911 86.1894 111.049 85.7538 111.325 85.375C111.606 84.9962 111.986 84.6989 112.467 84.483C112.952 84.267 113.501 84.1591 114.115 84.1591C114.979 84.1591 115.657 84.3485 116.149 84.7273C116.645 85.1061 116.998 85.6061 117.206 86.2273ZM120.724 87.75V93H119.384V81.3636H120.724V85.6364H120.838C121.043 85.1856 121.349 84.8277 121.759 84.5625C122.171 84.2936 122.721 84.1591 123.406 84.1591C124.001 84.1591 124.522 84.2784 124.969 84.517C125.416 84.7519 125.762 85.1136 126.009 85.6023C126.259 86.0871 126.384 86.7045 126.384 87.4545V93H125.043V87.5455C125.043 86.8523 124.863 86.3163 124.503 85.9375C124.147 85.5549 123.652 85.3636 123.02 85.3636C122.58 85.3636 122.187 85.4564 121.838 85.642C121.493 85.8277 121.221 86.0985 121.02 86.4545C120.823 86.8106 120.724 87.2424 120.724 87.75ZM128.837 93V84.2727H130.178V93H128.837ZM129.518 82.8182C129.257 82.8182 129.032 82.7292 128.842 82.5511C128.657 82.3731 128.564 82.1591 128.564 81.9091C128.564 81.6591 128.657 81.4451 128.842 81.267C129.032 81.089 129.257 81 129.518 81C129.78 81 130.003 81.089 130.189 81.267C130.378 81.4451 130.473 81.6591 130.473 81.9091C130.473 82.1591 130.378 82.3731 130.189 82.5511C130.003 82.7292 129.78 82.8182 129.518 82.8182ZM136.429 84.2727V85.4091H131.906V84.2727H136.429ZM133.224 82.1818H134.565V90.5C134.565 90.8788 134.62 91.1629 134.73 91.3523C134.844 91.5379 134.988 91.6629 135.162 91.7273C135.34 91.7879 135.527 91.8182 135.724 91.8182C135.872 91.8182 135.993 91.8106 136.088 91.7955C136.183 91.7765 136.259 91.7614 136.315 91.75L136.588 92.9545C136.497 92.9886 136.37 93.0227 136.207 93.0568C136.045 93.0947 135.838 93.1136 135.588 93.1136C135.209 93.1136 134.838 93.0322 134.474 92.8693C134.115 92.7064 133.815 92.4583 133.577 92.125C133.342 91.7917 133.224 91.3712 133.224 90.8636V82.1818ZM142.514 81.3636V93H141.105V82.8409H141.037L138.196 84.7273V83.2955L141.105 81.3636H142.514Z" fill="white"/>
</svg>
