<svg width="175" height="175" viewBox="0 0 175 175" fill="none" xmlns="http://www.w3.org/2000/svg">
<circle cx="87.5" cy="87.5" r="87.5" fill="#2B3C5B"/>
<path d="M30.4091 93V81.3636H34.4773C35.2879 81.3636 35.9564 81.5038 36.483 81.7841C37.0095 82.0606 37.4015 82.4337 37.6591 82.9034C37.9167 83.3693 38.0455 83.8864 38.0455 84.4545C38.0455 84.9545 37.9564 85.3674 37.7784 85.6932C37.6042 86.0189 37.3731 86.2765 37.0852 86.4659C36.8011 86.6553 36.4924 86.7955 36.1591 86.8864V87C36.5152 87.0227 36.8731 87.1477 37.233 87.375C37.5928 87.6023 37.8939 87.928 38.1364 88.3523C38.3788 88.7765 38.5 89.2955 38.5 89.9091C38.5 90.4924 38.3674 91.017 38.1023 91.483C37.8371 91.9489 37.4186 92.3182 36.8466 92.5909C36.2746 92.8636 35.5303 93 34.6136 93H30.4091ZM31.8182 91.75H34.6136C35.5341 91.75 36.1875 91.572 36.5739 91.2159C36.964 90.8561 37.1591 90.4205 37.1591 89.9091C37.1591 89.5152 37.0587 89.1515 36.858 88.8182C36.6572 88.4811 36.3712 88.2121 36 88.0114C35.6288 87.8068 35.1894 87.7045 34.6818 87.7045H31.8182V91.75ZM31.8182 86.4773H34.4318C34.8561 86.4773 35.2386 86.3939 35.5795 86.2273C35.9242 86.0606 36.197 85.8258 36.3977 85.5227C36.6023 85.2197 36.7045 84.8636 36.7045 84.4545C36.7045 83.9432 36.5265 83.5095 36.1705 83.1534C35.8144 82.7936 35.25 82.6136 34.4773 82.6136H31.8182V86.4773ZM44.2926 93.1818C43.4517 93.1818 42.7263 92.9962 42.1165 92.625C41.5104 92.25 41.0426 91.7273 40.7131 91.0568C40.3873 90.3826 40.2244 89.5985 40.2244 88.7045C40.2244 87.8106 40.3873 87.0227 40.7131 86.3409C41.0426 85.6553 41.5009 85.1212 42.0881 84.7386C42.679 84.3523 43.3684 84.1591 44.1562 84.1591C44.6108 84.1591 45.0597 84.2348 45.5028 84.3864C45.946 84.5379 46.3494 84.7841 46.7131 85.125C47.0767 85.4621 47.3665 85.9091 47.5824 86.4659C47.7983 87.0227 47.9062 87.7083 47.9062 88.5227V89.0909H41.179V87.9318H46.5426C46.5426 87.4394 46.4441 87 46.2472 86.6136C46.054 86.2273 45.7775 85.9223 45.4176 85.6989C45.0616 85.4754 44.6411 85.3636 44.1562 85.3636C43.6222 85.3636 43.16 85.4962 42.7699 85.7614C42.3835 86.0227 42.0862 86.3636 41.8778 86.7841C41.6695 87.2045 41.5653 87.6553 41.5653 88.1364V88.9091C41.5653 89.5682 41.679 90.1269 41.9062 90.5852C42.1373 91.0398 42.4574 91.3864 42.8665 91.625C43.2756 91.8598 43.7509 91.9773 44.2926 91.9773C44.6449 91.9773 44.9631 91.928 45.2472 91.8295C45.535 91.7273 45.7831 91.5758 45.9915 91.375C46.1998 91.1705 46.3608 90.9167 46.4744 90.6136L47.7699 90.9773C47.6335 91.4167 47.4044 91.803 47.0824 92.1364C46.7604 92.4659 46.3627 92.7235 45.8892 92.9091C45.4157 93.0909 44.8835 93.1818 44.2926 93.1818ZM50.1278 93V81.3636H51.4688V85.6591H51.5824C51.6809 85.5076 51.8172 85.3144 51.9915 85.0795C52.1695 84.8409 52.4233 84.6288 52.7528 84.4432C53.0862 84.2538 53.5369 84.1591 54.1051 84.1591C54.84 84.1591 55.4877 84.3428 56.0483 84.7102C56.6089 85.0777 57.0464 85.5985 57.3608 86.2727C57.6752 86.947 57.8324 87.7424 57.8324 88.6591C57.8324 89.5833 57.6752 90.3845 57.3608 91.0625C57.0464 91.7367 56.6108 92.2595 56.054 92.6307C55.4972 92.9981 54.8551 93.1818 54.1278 93.1818C53.5672 93.1818 53.1184 93.089 52.7812 92.9034C52.4441 92.714 52.1847 92.5 52.0028 92.2614C51.821 92.0189 51.6809 91.8182 51.5824 91.6591H51.4233V93H50.1278ZM51.446 88.6364C51.446 89.2955 51.5426 89.8769 51.7358 90.3807C51.929 90.8807 52.2112 91.2727 52.5824 91.5568C52.9536 91.8371 53.4081 91.9773 53.946 91.9773C54.5066 91.9773 54.9744 91.8295 55.3494 91.5341C55.7282 91.2348 56.0123 90.8333 56.2017 90.3295C56.3949 89.822 56.4915 89.2576 56.4915 88.6364C56.4915 88.0227 56.3968 87.4697 56.2074 86.9773C56.0218 86.4811 55.7396 86.089 55.3608 85.8011C54.9858 85.5095 54.5142 85.3636 53.946 85.3636C53.4006 85.3636 52.9422 85.5019 52.571 85.7784C52.1998 86.0511 51.9195 86.4337 51.7301 86.9261C51.5407 87.4148 51.446 87.9848 51.446 88.6364ZM62.4517 93.2045C61.8987 93.2045 61.3968 93.1004 60.946 92.892C60.4953 92.6799 60.1373 92.375 59.8722 91.9773C59.607 91.5758 59.4744 91.0909 59.4744 90.5227C59.4744 90.0227 59.5729 89.6174 59.7699 89.3068C59.9669 88.9924 60.2301 88.7462 60.5597 88.5682C60.8892 88.3902 61.2528 88.2576 61.6506 88.1705C62.0521 88.0795 62.4555 88.0076 62.8608 87.9545C63.3911 87.8864 63.821 87.8352 64.1506 87.8011C64.4839 87.7633 64.7263 87.7008 64.8778 87.6136C65.0331 87.5265 65.1108 87.375 65.1108 87.1591V87.1136C65.1108 86.553 64.9574 86.1174 64.6506 85.8068C64.3475 85.4962 63.8873 85.3409 63.2699 85.3409C62.6297 85.3409 62.1278 85.4811 61.7642 85.7614C61.4006 86.0417 61.1449 86.3409 60.9972 86.6591L59.7244 86.2045C59.9517 85.6742 60.2547 85.2614 60.6335 84.9659C61.0161 84.6667 61.4328 84.4583 61.8835 84.3409C62.3381 84.2197 62.785 84.1591 63.2244 84.1591C63.5047 84.1591 63.8267 84.1932 64.1903 84.2614C64.5578 84.3258 64.9119 84.4602 65.2528 84.6648C65.5975 84.8693 65.8835 85.178 66.1108 85.5909C66.3381 86.0038 66.4517 86.5568 66.4517 87.25V93H65.1108V91.8182H65.0426C64.9517 92.0076 64.8002 92.2102 64.5881 92.4261C64.3759 92.642 64.0938 92.8258 63.7415 92.9773C63.3892 93.1288 62.9593 93.2045 62.4517 93.2045ZM62.6562 92C63.1866 92 63.6335 91.8958 63.9972 91.6875C64.3646 91.4792 64.6411 91.2102 64.8267 90.8807C65.0161 90.5511 65.1108 90.2045 65.1108 89.8409V88.6136C65.054 88.6818 64.929 88.7443 64.7358 88.8011C64.5464 88.8542 64.3267 88.9015 64.0767 88.9432C63.8305 88.9811 63.59 89.0152 63.3551 89.0455C63.1241 89.072 62.9366 89.0947 62.7926 89.1136C62.4441 89.1591 62.1184 89.233 61.8153 89.3352C61.5161 89.4337 61.2737 89.5833 61.0881 89.7841C60.9063 89.9811 60.8153 90.25 60.8153 90.5909C60.8153 91.0568 60.9877 91.4091 61.3324 91.6477C61.6809 91.8826 62.1222 92 62.6562 92ZM75.081 86.2273L73.8764 86.5682C73.8007 86.3674 73.6889 86.1723 73.5412 85.983C73.3973 85.7898 73.2003 85.6307 72.9503 85.5057C72.7003 85.3807 72.3802 85.3182 71.9901 85.3182C71.456 85.3182 71.0109 85.4413 70.6548 85.6875C70.3026 85.9299 70.1264 86.2386 70.1264 86.6136C70.1264 86.947 70.2476 87.2102 70.4901 87.4034C70.7325 87.5966 71.1113 87.7576 71.6264 87.8864L72.9219 88.2045C73.7022 88.3939 74.2836 88.6837 74.6662 89.0739C75.0488 89.4602 75.2401 89.9583 75.2401 90.5682C75.2401 91.0682 75.0961 91.5152 74.8082 91.9091C74.5241 92.303 74.1264 92.6136 73.6151 92.8409C73.1037 93.0682 72.509 93.1818 71.831 93.1818C70.9408 93.1818 70.2041 92.9886 69.6207 92.6023C69.0374 92.2159 68.6681 91.6515 68.5128 90.9091L69.7855 90.5909C69.9067 91.0606 70.1359 91.4129 70.473 91.6477C70.8139 91.8826 71.259 92 71.8082 92C72.4332 92 72.9295 91.8674 73.2969 91.6023C73.6681 91.3333 73.8537 91.0114 73.8537 90.6364C73.8537 90.3333 73.7476 90.0795 73.5355 89.875C73.3234 89.6667 72.9976 89.5114 72.5582 89.4091L71.1037 89.0682C70.3045 88.8788 69.7173 88.5852 69.3423 88.1875C68.9711 87.786 68.7855 87.2841 68.7855 86.6818C68.7855 86.1894 68.9238 85.7538 69.2003 85.375C69.4806 84.9962 69.8613 84.6989 70.3423 84.483C70.8272 84.267 71.3764 84.1591 71.9901 84.1591C72.8537 84.1591 73.5317 84.3485 74.0241 84.7273C74.5204 85.1061 74.8726 85.6061 75.081 86.2273ZM85.4176 93.1818C84.5767 93.1818 83.8513 92.9962 83.2415 92.625C82.6354 92.25 82.1676 91.7273 81.8381 91.0568C81.5123 90.3826 81.3494 89.5985 81.3494 88.7045C81.3494 87.8106 81.5123 87.0227 81.8381 86.3409C82.1676 85.6553 82.6259 85.1212 83.2131 84.7386C83.804 84.3523 84.4934 84.1591 85.2812 84.1591C85.7358 84.1591 86.1847 84.2348 86.6278 84.3864C87.071 84.5379 87.4744 84.7841 87.8381 85.125C88.2017 85.4621 88.4915 85.9091 88.7074 86.4659C88.9233 87.0227 89.0312 87.7083 89.0312 88.5227V89.0909H82.304V87.9318H87.6676C87.6676 87.4394 87.5691 87 87.3722 86.6136C87.179 86.2273 86.9025 85.9223 86.5426 85.6989C86.1866 85.4754 85.7661 85.3636 85.2812 85.3636C84.7472 85.3636 84.285 85.4962 83.8949 85.7614C83.5085 86.0227 83.2112 86.3636 83.0028 86.7841C82.7945 87.2045 82.6903 87.6553 82.6903 88.1364V88.9091C82.6903 89.5682 82.804 90.1269 83.0312 90.5852C83.2623 91.0398 83.5824 91.3864 83.9915 91.625C84.4006 91.8598 84.8759 91.9773 85.4176 91.9773C85.7699 91.9773 86.0881 91.928 86.3722 91.8295C86.66 91.7273 86.9081 91.5758 87.1165 91.375C87.3248 91.1705 87.4858 90.9167 87.5994 90.6136L88.8949 90.9773C88.7585 91.4167 88.5294 91.803 88.2074 92.1364C87.8854 92.4659 87.4877 92.7235 87.0142 92.9091C86.5407 93.0909 86.0085 93.1818 85.4176 93.1818ZM91.2528 93V81.3636H92.5938V85.6591H92.7074C92.8059 85.5076 92.9422 85.3144 93.1165 85.0795C93.2945 84.8409 93.5483 84.6288 93.8778 84.4432C94.2112 84.2538 94.6619 84.1591 95.2301 84.1591C95.965 84.1591 96.6127 84.3428 97.1733 84.7102C97.7339 85.0777 98.1714 85.5985 98.4858 86.2727C98.8002 86.947 98.9574 87.7424 98.9574 88.6591C98.9574 89.5833 98.8002 90.3845 98.4858 91.0625C98.1714 91.7367 97.7358 92.2595 97.179 92.6307C96.6222 92.9981 95.9801 93.1818 95.2528 93.1818C94.6922 93.1818 94.2434 93.089 93.9062 92.9034C93.5691 92.714 93.3097 92.5 93.1278 92.2614C92.946 92.0189 92.8059 91.8182 92.7074 91.6591H92.5483V93H91.2528ZM92.571 88.6364C92.571 89.2955 92.6676 89.8769 92.8608 90.3807C93.054 90.8807 93.3362 91.2727 93.7074 91.5568C94.0786 91.8371 94.5331 91.9773 95.071 91.9773C95.6316 91.9773 96.0994 91.8295 96.4744 91.5341C96.8532 91.2348 97.1373 90.8333 97.3267 90.3295C97.5199 89.822 97.6165 89.2576 97.6165 88.6364C97.6165 88.0227 97.5218 87.4697 97.3324 86.9773C97.1468 86.4811 96.8646 86.089 96.4858 85.8011C96.1108 85.5095 95.6392 85.3636 95.071 85.3636C94.5256 85.3636 94.0672 85.5019 93.696 85.7784C93.3248 86.0511 93.0445 86.4337 92.8551 86.9261C92.6657 87.4148 92.571 87.9848 92.571 88.6364ZM103.577 93.2045C103.024 93.2045 102.522 93.1004 102.071 92.892C101.62 92.6799 101.262 92.375 100.997 91.9773C100.732 91.5758 100.599 91.0909 100.599 90.5227C100.599 90.0227 100.698 89.6174 100.895 89.3068C101.092 88.9924 101.355 88.7462 101.685 88.5682C102.014 88.3902 102.378 88.2576 102.776 88.1705C103.177 88.0795 103.58 88.0076 103.986 87.9545C104.516 87.8864 104.946 87.8352 105.276 87.8011C105.609 87.7633 105.851 87.7008 106.003 87.6136C106.158 87.5265 106.236 87.375 106.236 87.1591V87.1136C106.236 86.553 106.082 86.1174 105.776 85.8068C105.473 85.4962 105.012 85.3409 104.395 85.3409C103.755 85.3409 103.253 85.4811 102.889 85.7614C102.526 86.0417 102.27 86.3409 102.122 86.6591L100.849 86.2045C101.077 85.6742 101.38 85.2614 101.759 84.9659C102.141 84.6667 102.558 84.4583 103.009 84.3409C103.463 84.2197 103.91 84.1591 104.349 84.1591C104.63 84.1591 104.952 84.1932 105.315 84.2614C105.683 84.3258 106.037 84.4602 106.378 84.6648C106.723 84.8693 107.009 85.178 107.236 85.5909C107.463 86.0038 107.577 86.5568 107.577 87.25V93H106.236V91.8182H106.168C106.077 92.0076 105.925 92.2102 105.713 92.4261C105.501 92.642 105.219 92.8258 104.866 92.9773C104.514 93.1288 104.084 93.2045 103.577 93.2045ZM103.781 92C104.312 92 104.759 91.8958 105.122 91.6875C105.49 91.4792 105.766 91.2102 105.952 90.8807C106.141 90.5511 106.236 90.2045 106.236 89.8409V88.6136C106.179 88.6818 106.054 88.7443 105.861 88.8011C105.671 88.8542 105.452 88.9015 105.202 88.9432C104.955 88.9811 104.715 89.0152 104.48 89.0455C104.249 89.072 104.062 89.0947 103.918 89.1136C103.569 89.1591 103.243 89.233 102.94 89.3352C102.641 89.4337 102.399 89.5833 102.213 89.7841C102.031 89.9811 101.94 90.25 101.94 90.5909C101.94 91.0568 102.113 91.4091 102.457 91.6477C102.806 91.8826 103.247 92 103.781 92ZM116.206 86.2273L115.001 86.5682C114.926 86.3674 114.814 86.1723 114.666 85.983C114.522 85.7898 114.325 85.6307 114.075 85.5057C113.825 85.3807 113.505 85.3182 113.115 85.3182C112.581 85.3182 112.136 85.4413 111.78 85.6875C111.428 85.9299 111.251 86.2386 111.251 86.6136C111.251 86.947 111.373 87.2102 111.615 87.4034C111.857 87.5966 112.236 87.7576 112.751 87.8864L114.047 88.2045C114.827 88.3939 115.409 88.6837 115.791 89.0739C116.174 89.4602 116.365 89.9583 116.365 90.5682C116.365 91.0682 116.221 91.5152 115.933 91.9091C115.649 92.303 115.251 92.6136 114.74 92.8409C114.229 93.0682 113.634 93.1818 112.956 93.1818C112.066 93.1818 111.329 92.9886 110.746 92.6023C110.162 92.2159 109.793 91.6515 109.638 90.9091L110.911 90.5909C111.032 91.0606 111.261 91.4129 111.598 91.6477C111.939 91.8826 112.384 92 112.933 92C113.558 92 114.054 91.8674 114.422 91.6023C114.793 91.3333 114.979 91.0114 114.979 90.6364C114.979 90.3333 114.873 90.0795 114.661 89.875C114.448 89.6667 114.123 89.5114 113.683 89.4091L112.229 89.0682C111.429 88.8788 110.842 88.5852 110.467 88.1875C110.096 87.786 109.911 87.2841 109.911 86.6818C109.911 86.1894 110.049 85.7538 110.325 85.375C110.606 84.9962 110.986 84.6989 111.467 84.483C111.952 84.267 112.501 84.1591 113.115 84.1591C113.979 84.1591 114.657 84.3485 115.149 84.7273C115.645 85.1061 115.998 85.6061 116.206 86.2273ZM119.724 87.75V93H118.384V81.3636H119.724V85.6364H119.838C120.043 85.1856 120.349 84.8277 120.759 84.5625C121.171 84.2936 121.721 84.1591 122.406 84.1591C123.001 84.1591 123.522 84.2784 123.969 84.517C124.416 84.7519 124.762 85.1136 125.009 85.6023C125.259 86.0871 125.384 86.7045 125.384 87.4545V93H124.043V87.5455C124.043 86.8523 123.863 86.3163 123.503 85.9375C123.147 85.5549 122.652 85.3636 122.02 85.3636C121.58 85.3636 121.187 85.4564 120.838 85.642C120.493 85.8277 120.221 86.0985 120.02 86.4545C119.823 86.8106 119.724 87.2424 119.724 87.75ZM127.837 93V84.2727H129.178V93H127.837ZM128.518 82.8182C128.257 82.8182 128.032 82.7292 127.842 82.5511C127.657 82.3731 127.564 82.1591 127.564 81.9091C127.564 81.6591 127.657 81.4451 127.842 81.267C128.032 81.089 128.257 81 128.518 81C128.78 81 129.003 81.089 129.189 81.267C129.378 81.4451 129.473 81.6591 129.473 81.9091C129.473 82.1591 129.378 82.3731 129.189 82.5511C129.003 82.7292 128.78 82.8182 128.518 82.8182ZM135.429 84.2727V85.4091H130.906V84.2727H135.429ZM132.224 82.1818H133.565V90.5C133.565 90.8788 133.62 91.1629 133.73 91.3523C133.844 91.5379 133.988 91.6629 134.162 91.7273C134.34 91.7879 134.527 91.8182 134.724 91.8182C134.872 91.8182 134.993 91.8106 135.088 91.7955C135.183 91.7765 135.259 91.7614 135.315 91.75L135.588 92.9545C135.497 92.9886 135.37 93.0227 135.207 93.0568C135.045 93.0947 134.838 93.1136 134.588 93.1136C134.209 93.1136 133.838 93.0322 133.474 92.8693C133.115 92.7064 132.815 92.4583 132.577 92.125C132.342 91.7917 132.224 91.3712 132.224 90.8636V82.1818ZM141.355 93.1591C140.605 93.1591 139.937 93.0303 139.349 92.7727C138.766 92.5152 138.302 92.1572 137.957 91.6989C137.616 91.2367 137.431 90.7008 137.401 90.0909H138.832C138.863 90.4659 138.991 90.7898 139.219 91.0625C139.446 91.3314 139.743 91.5398 140.111 91.6875C140.478 91.8352 140.885 91.9091 141.332 91.9091C141.832 91.9091 142.276 91.822 142.662 91.6477C143.048 91.4735 143.351 91.2311 143.571 90.9205C143.791 90.6098 143.901 90.25 143.901 89.8409C143.901 89.4129 143.795 89.036 143.582 88.7102C143.37 88.3807 143.06 88.1231 142.651 87.9375C142.241 87.7519 141.741 87.6591 141.151 87.6591H140.219V86.4091H141.151C141.613 86.4091 142.018 86.3258 142.366 86.1591C142.719 85.9924 142.993 85.7576 143.19 85.4545C143.391 85.1515 143.491 84.7955 143.491 84.3864C143.491 83.9924 143.404 83.6496 143.23 83.358C143.056 83.0663 142.81 82.839 142.491 82.6761C142.177 82.5133 141.806 82.4318 141.378 82.4318C140.976 82.4318 140.598 82.5057 140.241 82.6534C139.889 82.7973 139.601 83.0076 139.378 83.2841C139.154 83.5568 139.033 83.8864 139.014 84.2727H137.651C137.673 83.6629 137.857 83.1288 138.202 82.6705C138.546 82.2083 138.997 81.8485 139.554 81.5909C140.115 81.3333 140.73 81.2045 141.401 81.2045C142.12 81.2045 142.738 81.3504 143.253 81.642C143.768 81.9299 144.164 82.3106 144.44 82.7841C144.717 83.2576 144.855 83.7689 144.855 84.3182C144.855 84.9735 144.683 85.5322 144.338 85.9943C143.997 86.4564 143.533 86.7765 142.946 86.9545V87.0455C143.681 87.1667 144.255 87.4792 144.668 87.983C145.08 88.483 145.287 89.1023 145.287 89.8409C145.287 90.4735 145.115 91.0417 144.77 91.5455C144.429 92.0455 143.963 92.4394 143.372 92.7273C142.781 93.0152 142.109 93.1591 141.355 93.1591Z" fill="white"/>
</svg>
